<svg width="41" height="41" viewBox="0 0 41 41" fill="none" xmlns="http://www.w3.org/2000/svg">
<circle cx="20.5" cy="20.5" r="20.5" fill="#69FFC3"/>
<path d="M16.1579 11.2857C14.1053 13.5143 14.0526 13.6857 14.2632 16.7143C14.5263 20.0857 15.8947 22.3714 18.3158 23.3429C20.1579 24.1429 18.7895 25.5714 16.1579 25.5714C13.3158 25.5714 11 28.0286 11 30.9429C11 32.7714 11.1579 33 12.3158 33C13.4211 33 13.6316 32.7143 13.6316 31.4C13.6316 29.2857 14.5263 28.4286 16.7895 28.4286C17.7895 28.4286 19.2105 28.0286 19.8421 27.5143C20.8947 26.7143 21.1053 26.7143 22.1579 27.5143C22.7895 28.0286 24.2105 28.4286 25.2105 28.4286C27.4737 28.4286 28.3684 29.2857 28.3684 31.4C28.3684 32.7143 28.5789 33 29.6842 33C30.8421 33 31 32.7714 31 30.9429C31 28.0286 28.6842 25.5714 25.8421 25.5714C23.2105 25.5714 21.8421 24.1429 23.6842 23.3429C26.1053 22.3714 27.4737 20.0857 27.7368 16.7143C27.9474 13.6857 27.8947 13.5143 25.8421 11.2857C23.9474 9.22857 23.5263 9 21 9C18.4737 9 18.0526 9.22857 16.1579 11.2857ZM24.1053 13.3429C27.4737 17.9714 21.8947 23.7429 18.1053 19.5714C15.4211 16.6571 17.2105 11.8571 21 11.8571C22.5789 11.8571 23.2632 12.2 24.1053 13.3429Z" fill="black"/>
</svg>
