<svg width="38" height="21" viewBox="0 0 38 21" fill="none" xmlns="http://www.w3.org/2000/svg">
<path d="M27.5 17V3.66667C27.5 3.22464 27.2761 2.80072 26.8776 2.48816C26.4791 2.17559 25.9386 2 25.375 2H4.125C3.56142 2 3.02091 2.17559 2.6224 2.48816C2.22388 2.80072 2 3.22464 2 3.66667V17C2 17.442 2.22388 17.8659 2.6224 18.1785C3.02091 18.4911 3.56142 18.6667 4.125 18.6667H25.375C25.9386 18.6667 26.4791 18.4911 26.8776 18.1785C27.2761 17.8659 27.5 17.442 27.5 17Z" stroke="white" stroke-width="3"/>
<path d="M36 2L27.5 7V13.6667L36 18.6667V2Z" stroke="white" stroke-width="3" stroke-linejoin="round"/>
</svg>
