<svg width="32" height="24" viewBox="0 0 32 24" fill="none" xmlns="http://www.w3.org/2000/svg">
<path d="M30.8462 19.7609L27.8462 4.86088C27.5462 3.56088 26.7462 2.36088 25.6462 1.66088C23.7462 0.560882 21.3462 0.860882 19.8462 2.36088L18.5462 3.76088H16.5462H15.4462H13.4462L12.0462 2.36088C10.5462 0.860882 8.14617 0.560882 6.24617 1.66088C5.04617 2.36088 4.24617 3.46088 4.04617 4.86088L1.04617 19.7609C0.746165 21.3609 1.94617 22.7609 3.54617 22.7609C4.14617 22.7609 4.64617 22.5609 5.04617 22.0609L8.74617 17.7609C10.4462 15.8609 12.8462 14.7609 15.3462 14.7609H16.4462C18.9462 14.7609 21.4462 15.8609 23.0462 17.7609L26.8462 22.0609C27.2462 22.4609 27.7462 22.7609 28.3462 22.7609C30.0462 22.7609 31.2462 21.2609 30.8462 19.7609Z" stroke="white" stroke-width="2" stroke-miterlimit="10" stroke-linecap="round" stroke-linejoin="round"/>
<path d="M22.946 10.7609C24.0506 10.7609 24.946 9.86546 24.946 8.76089C24.946 7.65633 24.0506 6.76089 22.946 6.76089C21.8415 6.76089 20.946 7.65633 20.946 8.76089C20.946 9.86546 21.8415 10.7609 22.946 10.7609Z" stroke="white" stroke-width="2" stroke-miterlimit="10" stroke-linecap="round" stroke-linejoin="round"/>
<path d="M8.94604 10.7609V6.76089" stroke="white" stroke-width="2" stroke-miterlimit="10" stroke-linecap="round" stroke-linejoin="round"/>
<path d="M10.946 8.76089H6.94604" stroke="white" stroke-width="2" stroke-miterlimit="10" stroke-linecap="round" stroke-linejoin="round"/>
<path d="M16.946 7.76089H14.946" stroke="white" stroke-width="2" stroke-miterlimit="10" stroke-linecap="round" stroke-linejoin="round"/>
<path d="M16.946 10.7609H14.946" stroke="white" stroke-width="2" stroke-miterlimit="10" stroke-linecap="round" stroke-linejoin="round"/>
</svg>
