<svg width="20" height="24" viewBox="0 0 20 24" fill="none" xmlns="http://www.w3.org/2000/svg">
<path d="M5.15789 2.28571C3.10526 4.51429 3.05263 4.68571 3.26316 7.71429C3.52632 11.0857 4.89474 13.3714 7.31579 14.3429C9.15789 15.1429 7.78947 16.5714 5.15789 16.5714C2.31579 16.5714 0 19.0286 0 21.9429C0 23.7714 0.157895 24 1.31579 24C2.42105 24 2.63158 23.7143 2.63158 22.4C2.63158 20.2857 3.52632 19.4286 5.78947 19.4286C6.78947 19.4286 8.21053 19.0286 8.84211 18.5143C9.89474 17.7143 10.1053 17.7143 11.1579 18.5143C11.7895 19.0286 13.2105 19.4286 14.2105 19.4286C16.4737 19.4286 17.3684 20.2857 17.3684 22.4C17.3684 23.7143 17.5789 24 18.6842 24C19.8421 24 20 23.7714 20 21.9429C20 19.0286 17.6842 16.5714 14.8421 16.5714C12.2105 16.5714 10.8421 15.1429 12.6842 14.3429C15.1053 13.3714 16.4737 11.0857 16.7368 7.71429C16.9474 4.68571 16.8947 4.51429 14.8421 2.28571C12.9474 0.228571 12.5263 -1.3411e-07 10 -1.3411e-07C7.47368 -1.3411e-07 7.05263 0.228571 5.15789 2.28571ZM13.1053 4.34286C16.4737 8.97143 10.8947 14.7429 7.10526 10.5714C4.42105 7.65714 6.21053 2.85714 10 2.85714C11.5789 2.85714 12.2632 3.2 13.1053 4.34286Z" fill="white"/>
</svg>
